<svg width="28" height="28" viewBox="0 0 28 28" fill="none" xmlns="http://www.w3.org/2000/svg">
<path d="M16 4.00008H8C7.46957 4.00008 6.96086 4.21079 6.58579 4.58586C6.21071 4.96094 6 5.46964 6 6.00008V22.0001C6 22.5305 6.21071 23.0392 6.58579 23.4143C6.96086 23.7894 7.46957 24.0001 8 24.0001H20C20.5304 24.0001 21.0391 23.7894 21.4142 23.4143C21.7893 23.0392 22 22.5305 22 22.0001V10.0001M16 4.00008L22 10.0001M16 4.00008V10.0001H22M18 15.0001H10M18 19.0001H10M12 11.0001H10" stroke="#999999" stroke-linecap="round" stroke-linejoin="round"/>
</svg>
